<svg width="41" height="41" viewBox="0 0 41 41" fill="none" xmlns="http://www.w3.org/2000/svg">
<circle cx="20.6042" cy="20.0121" r="19.5111" stroke="white"/>
<path fill-rule="evenodd" clip-rule="evenodd" d="M18.507 22.9033L18.506 16.8356L24.2326 19.8801L18.507 22.9033ZM31.0802 15.7845C31.0802 15.7845 30.8731 14.2963 30.2376 13.641C29.4317 12.7809 28.5283 12.7766 28.1141 12.7263C25.1483 12.5078 20.6996 12.5078 20.6996 12.5078H20.6903C20.6903 12.5078 16.2417 12.5078 13.2758 12.7263C12.8615 12.7766 11.9585 12.7809 11.1523 13.641C10.5169 14.2963 10.3101 15.7845 10.3101 15.7845C10.3101 15.7845 10.0981 17.5321 10.0981 19.2796V20.918C10.0981 22.6655 10.3101 24.4131 10.3101 24.4131C10.3101 24.4131 10.5169 25.9012 11.1523 26.5566C11.9585 27.4167 13.0175 27.3895 13.4892 27.4797C15.1847 27.6453 20.695 27.6966 20.695 27.6966C20.695 27.6966 25.1483 27.6898 28.1141 27.4713C28.5283 27.421 29.4317 27.4167 30.2376 26.5566C30.8731 25.9012 31.0802 24.4131 31.0802 24.4131C31.0802 24.4131 31.2918 22.6655 31.2918 20.918V19.2796C31.2918 17.5321 31.0802 15.7845 31.0802 15.7845Z" fill="white"/>
</svg>
