<svg width="41" height="41" viewBox="0 0 41 41" fill="none" xmlns="http://www.w3.org/2000/svg">
<circle cx="20.9882" cy="20.0121" r="19.5111" stroke="white"/>
<mask id="mask0_21_571" style="mask-type:alpha" maskUnits="userSpaceOnUse" x="0" y="0" width="41" height="41">
<circle cx="20.9882" cy="20.0121" r="19.5111" fill="white" stroke="white"/>
</mask>
<g mask="url(#mask0_21_571)">
</g>
<path fill-rule="evenodd" clip-rule="evenodd" d="M12.6262 16.53C12.6262 13.835 14.7987 11.6504 17.4792 11.6504H24.6799C27.36 11.6504 29.5328 13.8353 29.5328 16.53V23.6802C29.5328 26.3753 27.3603 28.5598 24.6799 28.5598H17.4792C14.7991 28.5598 12.6262 26.3749 12.6262 23.6802V16.53ZM27.1152 15.7404C27.1152 16.3599 26.6194 16.8622 26.0078 16.8622C25.3962 16.8622 24.9003 16.3599 24.9003 15.7404C24.9003 15.1208 25.3962 14.6185 26.0078 14.6185C26.6194 14.6185 27.1152 15.1208 27.1152 15.7404ZM16.5284 20.2035C16.5284 22.7721 18.584 24.8544 21.1197 24.8544C23.6554 24.8544 25.711 22.7721 25.711 20.2035C25.711 17.6349 23.6554 15.5526 21.1197 15.5526C18.584 15.5526 16.5284 17.6349 16.5284 20.2035Z" fill="white"/>
<path fill-rule="evenodd" clip-rule="evenodd" d="M21.1198 23.2183C22.7635 23.2183 24.096 21.8685 24.096 20.2034C24.096 18.5383 22.7635 17.1885 21.1198 17.1885C19.4761 17.1885 18.1436 18.5383 18.1436 20.2034C18.1436 21.8685 19.4761 23.2183 21.1198 23.2183Z" fill="white"/>
</svg>
