<svg width="41" height="41" viewBox="0 0 41 41" fill="none" xmlns="http://www.w3.org/2000/svg">
<circle cx="20.0121" cy="20.0121" r="19.5111" stroke="white"/>
<path fill-rule="evenodd" clip-rule="evenodd" d="M31.4064 13.0808C30.6007 13.4326 29.7346 13.6704 28.8259 13.7772C29.7533 13.2298 30.4659 12.3631 30.8014 11.3302C29.9331 11.8372 28.9716 12.2052 27.9481 12.4035C27.1286 11.5439 25.9609 11.0068 24.6685 11.0068C22.1872 11.0068 20.1754 12.9871 20.1754 15.4297C20.1754 15.7763 20.2151 16.114 20.2918 16.4377C16.5575 16.2532 13.2468 14.4923 11.0308 11.8164C10.644 12.4696 10.4224 13.2294 10.4224 14.04C10.4224 15.5746 11.2156 16.9283 12.4212 17.7215C11.6847 17.6985 10.9919 17.4995 10.3862 17.1683C10.3857 17.1867 10.3857 17.2051 10.3857 17.2239C10.3857 19.3668 11.9345 21.1544 13.99 21.5608C13.6129 21.6619 13.216 21.716 12.8063 21.716C12.5167 21.716 12.2352 21.6882 11.9609 21.6366C12.5326 23.3937 14.1919 24.6726 16.1581 24.7082C14.6204 25.8945 12.6831 26.6016 10.5779 26.6016C10.2152 26.6016 9.8576 26.5806 9.5061 26.5398C11.4945 27.7947 13.8563 28.527 16.3936 28.527C24.658 28.527 29.1775 21.7874 29.1775 15.9426C29.1775 15.7508 29.173 15.5601 29.1643 15.3704C30.0423 14.7467 30.804 13.9678 31.4064 13.0808Z" fill="white"/>
</svg>
